<svg width="48" height="48" version="1.1" xmlns="http://www.w3.org/2000/svg" xmlns:xlink="http://www.w3.org/1999/xlink" viewBox="0pt 0pt 48pt 48pt" fill-dark="#FFF" stroke-dark="none">
  <svg height="48" viewBox="0 0 48 48" width="48" xmlns="http://www.w3.org/2000/svg" xmlns:xlink="http://www.w3.org/1999/xlink">
    <clipPath id="a" xmlns="http://www.w3.org/2000/svg">
      <path clip-rule="evenodd" d="m0 0h36v36h-36z" />
    </clipPath>
    <clipPath id="b" xmlns="http://www.w3.org/2000/svg">
      <path d="m6.721 3.741h21.007v28.512h-21.007z" />
    </clipPath>
    <linearGradient id="c" gradientTransform="matrix(-11.16 28.066 -28.066 -11.16 26.436 3.741)" gradientUnits="userSpaceOnUse" spreadMethod="pad" x1="0" x2="1" y1="0" y2="0" xmlns="http://www.w3.org/2000/svg">
      <stop offset="0" stop-color="#fff" />
      <stop offset="1" stop-color="#fff" stop-opacity="0" />
    </linearGradient>
    <mask id="d" height="1" maskUnits="userSpaceOnUse" width="1" x="0" y="0" xmlns="http://www.w3.org/2000/svg">
      <g clip-path="url(#b)">
        <path d="m6.721 3.741h21.007v28.512h-21.007z" fill="url(#c)" fill-rule="evenodd" />
      </g>
    </mask>
    <g clip-path="url(#a)" transform="matrix(1.3333333 0 0 -1.3333333 0 48)" xmlns="http://www.w3.org/2000/svg">
      <path d="m6.721 32.253v-28.509h21.007l-.045 22.51-6.002 6.002z" fill="#fff" fill-rule="evenodd" />
      <path d="m5.977 3v29.996l16.012.004 6.437-6.438.047-23.562zm21.005 1.488-.043 21.457-5.567 5.566-13.907-.002v-27.021z" />
      <path d="m26.981 26.251-5.256 5.255v-5.255z" fill-opacity=".098039" fill-rule="evenodd" />
      <path d="m46.658 14.171-2.422 6.328h-.039c.045-.501.068-1.097.068-1.787v-4.541h-.767v7.138h1.25l2.261-5.888h.039l2.28 5.888h1.241v-7.138h-.831v4.599c0 .528.023 1.101.069 1.719h-.039l-2.442-6.318z" />
      <path d="m55.695 14.171-.161.762h-.039c-.267-.336-.533-.563-.798-.681-.266-.119-.597-.179-.994-.179-.53 0-.946.137-1.247.41-.301.274-.452.663-.452 1.167 0 1.081.864 1.648 2.593 1.7l.908.029v.332c0 .42-.09.73-.271.93s-.47.3-.867.3c-.446 0-.95-.136-1.513-.41l-.249.62c.263.144.552.256.866.337.314.082.629.122.945.122.638 0 1.111-.141 1.418-.425.308-.283.462-.737.462-1.362v-3.652zm-1.831.571c.505 0 .901.139 1.189.415.288.277.432.664.432 1.162v.484l-.81-.034c-.645-.023-1.109-.123-1.394-.301-.285-.177-.427-.453-.427-.827 0-.293.088-.516.266-.669.177-.153.425-.23.744-.23z" />
      <path d="m60.105 14.073c-.775 0-1.374.239-1.799.716-.425.476-.637 1.151-.637 2.024 0 .895.215 1.586.646 2.075.432.488 1.046.732 1.844.732.257 0 .514-.028.771-.083s.459-.12.606-.195l-.249-.689c-.18.072-.375.131-.586.179-.212.047-.399.07-.562.07-1.087 0-1.631-.693-1.631-2.08 0-.657.133-1.162.398-1.513.266-.352.659-.528 1.179-.528.446 0 .904.096 1.372.288v-.717c-.358-.186-.808-.279-1.352-.279z" />
      <g mask="url(#d)">
        <path d="m6.721 32.25v-28.509h21.007l-.045 22.51-6.002 6.002z" fill="#c5c5c5" fill-rule="evenodd" />
      </g>
      <path d="m20.937 25.507v6.746h1.488v-5.258h5.303v-1.488z" />
      <path d="m7.433 4.497v27.003h13.497v-1.488h-12.009v-25.515z" fill="#fff" fill-opacity=".501961" />
      <path d="m7.426 4.504v1.488h18.012v18.018h-3.007v1.488h4.495v-20.994z" fill-opacity=".137255" />
      <path d="m6.022 2.997v29.996l16.012.004 6.437-6.438.047-23.562zm21.005 1.488-.043 21.457-5.567 5.566-13.907-.002v-27.021z" />
    </g>
  </svg>
</svg>