<svg width="48" height="48" version="1.1" xmlns="http://www.w3.org/2000/svg" xmlns:xlink="http://www.w3.org/1999/xlink" viewBox="0pt 0pt 48pt 48pt" fill-dark="#FFF" stroke-dark="none">
  <svg height="48" viewBox="0 0 48 48" width="48" xmlns="http://www.w3.org/2000/svg" xmlns:xlink="http://www.w3.org/1999/xlink">
    <clipPath id="a" xmlns="http://www.w3.org/2000/svg">
      <path clip-rule="evenodd" d="m0 0h36v36h-36z" />
    </clipPath>
    <g clip-path="url(#a)" fill-rule="evenodd" transform="matrix(1.3333333 0 0 -1.3333333 0 48)" xmlns="http://www.w3.org/2000/svg">
      <path d="m10.5 10.518h6v1.5h-4.5v3h3v1.5h-3v3h4.5v1.5h-6z" />
      <path d="m1.5 21.018v-1.5h3v-9h1.5v9h3v1.5z" />
      <path d="m18 21.018v-3h1.5v-1.5h1.5v-1.5h-1.5v-1.5h-1.5v-3h1.5v3h1.5v1.5h1.5v-1.5h1.5v-3h1.5v3h-1.5v1.5h-1.5v1.5h1.5v1.5h1.5v3h-1.5v-3h-1.5v-1.5h-1.5v1.5h-1.5v3z" />
      <path d="m27 21.018v-1.5h3v-9h1.5v9h3v1.5z" />
    </g>
  </svg>
</svg>