<?xml version="1.0" encoding="UTF-8"?>
<svg xmlns="http://www.w3.org/2000/svg" xmlns:xlink="http://www.w3.org/1999/xlink" viewBox="0 0 48 48">
  <defs>
    <style>
      .cls-1 {
        fill: url(#linear-gradient-2);
      }

      .cls-2 {
        fill: #fff;
      }

      .cls-3 {
        stroke: #fff;
      }

      .cls-3, .cls-4 {
        fill: none;
      }

      .cls-3, .cls-5 {
        stroke-miterlimit: 10;
      }

      .cls-5 {
        fill: url(#linear-gradient);
        stroke: #000;
        stroke-width: 2px;
      }

      .cls-6 {
        clip-path: url(#clippath);
      }
    </style>
    <linearGradient id="linear-gradient" x1="24" y1="44.77" x2="24" y2="3.25" gradientUnits="userSpaceOnUse">
      <stop offset="0" stop-color="#000"/>
      <stop offset=".26" stop-color="#003"/>
      <stop offset=".38" stop-color="#100052"/>
      <stop offset=".58" stop-color="#290083"/>
      <stop offset=".76" stop-color="#3c00a6"/>
      <stop offset=".91" stop-color="#4700bc"/>
      <stop offset="1" stop-color="#4c00c4"/>
    </linearGradient>
    <clipPath id="clippath">
      <circle class="cls-4" cx="24" cy="12.22" r="5.85"/>
    </clipPath>
    <linearGradient id="linear-gradient-2" x1="24.82" y1="43.18" x2="24.82" y2="20.65" gradientUnits="userSpaceOnUse">
      <stop offset="0" stop-color="#d3b8ff"/>
      <stop offset="1" stop-color="#fff"/>
    </linearGradient>
  </defs>
  <g id="Layer_1" data-name="Layer 1">
    <path class="cls-5" d="M8.95,18.29c0-8.31,6.74-15.05,15.05-15.05s15.05,6.74,15.05,15.05v26.48H8.95v-26.48Z"/>
    <g>
      <g class="cls-6">
        <path class="cls-2" d="M20.39,23.89c-.03-.22.12-.46.34-.56.05-.02.11-.04.17-.05.22-.05.43-.1.65-.15.06-.01.09-.05.09-.12,0-.06,0-.13-.03-.19-.09-.25-.18-.49-.28-.73-.1-.25-.2-.49-.24-.75-.04-.23-.03-.46,0-.69.03-.23.07-.47.11-.7,0-.03,0-.05-.03-.06-.31-.08-.61-.11-.92-.03-.29.07-.51.23-.63.51-.16.35-.38.66-.62.95-.28.34-.59.66-.91.97,0,0-.01.01-.02.02.18-.35.36-.7.54-1.05,0,0,0,0-.01,0-.4.51-.9.88-1.47,1.18.23-.37.42-.76.59-1.16-.42.56-.85,1.12-1.39,1.6-.04-.46-.06-.91.02-1.36-.27.29-.61.45-.97.59-.01-.16.04-.3.07-.44-.24.23-.53.35-.85.44,0-.03.02-.06.02-.08.12-.39.31-.74.54-1.07.41-.59.9-1.08,1.46-1.53.23-.19.48-.35.72-.53.01,0,.02-.02.05-.04-.39.02-.74-.03-1.05-.28.59-.12,1.15-.32,1.7-.52-.09.02-.17.04-.26.06-.44.08-.89.11-1.33,0-.19-.04-.37-.11-.54-.21-.02-.01-.04-.03-.07-.05.67-.01,1.31-.13,1.95-.26,0,0,0,0,0-.01-.27-.12-.55-.25-.83-.37.02,0,.02,0,.03,0,.5-.01.98-.14,1.43-.35.71-.34,1.24-.87,1.62-1.56.18-.34.36-.68.58-1,.42-.59.91-1.12,1.46-1.59.32-.27.65-.53,1-.76.11-.07.21-.14.32-.2,0,0,.02,0,.04-.01.06.27.05.53.05.8.02-.07.03-.14.05-.22.09-.56,0-1.09-.25-1.6-.02-.03-.04-.04-.08-.05-.52-.1-1.03-.23-1.52-.44-.23-.09-.45-.21-.67-.32-.03-.01-.06-.02-.09-.02-.18.02-.35.04-.53.06,0,0-.02,0-.04,0,.05-.07.09-.14.14-.2.32-.41.73-.68,1.22-.85.53-.19,1.07-.25,1.63-.22.04,0,.07,0,.11-.03.16-.11.35-.17.55-.19.48-.07.96,0,1.43.13.41.11.79.3,1.1.59.26.24.46.52.57.85,0,.02.02.04.03.05.32.21.5.52.6.87.09.31.17.63.27.94.08.26.18.52.26.78.11.36.16.73.21,1.1.07.52.11,1.04.13,1.56,0,.03,0,.05,0,.08-.07-.16-.15-.31-.22-.47h-.01c.07,1.25-.27,2.4-.92,3.46-.09-.2-.14-.41-.14-.62-.36.65-.87,1.14-1.53,1.48.1-.18.19-.35.29-.53-.02,0-.03,0-.03,0-.22.13-.46.22-.7.29-.03,0-.06.03-.08.06-.28.37-.57.74-.91,1.07-.05.05-.09.11-.09.18,0,.11-.02.21-.02.32,0,.07.03.14.07.19.45.56.91,1.11,1.42,1.61.17.17.35.32.54.46.23.18.5.22.78.23.2,0,.4,0,.6.01.15,0,.28.05.39.17.02.02.06.03.09.05.09.05.17.1.23.19.05.08.06.17.03.27-.01-.03-.02-.05-.03-.06-.07-.17-.21-.23-.38-.18-.09.02-.18.05-.27.06-.14,0-.25-.06-.34-.17-.02-.02-.03-.03-.07-.03-.22.06-.45.07-.67,0-.02,0-.05,0-.07,0-.33.15-.66.17-1,.03-.18-.07-.35-.07-.52.02-.05.02-.09.05-.14.07-.16.09-.31.07-.45-.03-.04-.03-.06-.07-.12-.06-.07.01-.13.04-.17.1,0,0-.01.01-.02.02,0-.11.07-.24.18-.31.03-.02.05-.04.08-.06.06-.06.13-.08.2-.08.1,0,.2,0,.29.02.17.03.34.04.51-.02.08-.03.15-.07.2-.14.04-.06.04-.1,0-.16-.23-.25-.46-.51-.68-.76-.4-.45-.8-.9-1.19-1.35-.26-.29-.33-.64-.23-1.01.03-.12.07-.23.11-.34,0-.02.01-.04.02-.06-.08,0-.16.02-.23.03-.16.02-.32.04-.48.07-.03,0-.07.02-.09.05-.22.2-.38.45-.5.72-.13.3-.27.59-.4.89-.09.2-.15.4-.12.62.01.12.04.25.08.36.07.22.14.44.22.65.02.06.05.13.08.19.08.16.2.24.38.24.21,0,.43.01.64.03.13.01.26.05.38.13.08.05.13.12.16.2,0,.02.03.04.05.05.14.09.22.2.2.37,0,.02,0,.03,0,.05,0,0,0,0-.01,0-.06-.16-.18-.21-.34-.21-.11,0-.22-.01-.32-.07-.03-.02-.07-.04-.1-.07-.03-.04-.07-.04-.11-.03-.17.02-.34,0-.5-.07-.04-.02-.09-.03-.13-.04-.05-.01-.08.01-.07.07,0,.04.02.07.03.1.03.1.05.2.02.31-.01.06-.05.1-.08.16,0,.02-.02.03-.03.05-.02.08-.05.15-.13.22-.01-.08-.02-.16-.03-.23,0-.03,0-.05-.03-.06-.06-.03-.07-.1-.08-.16,0-.07-.02-.14-.03-.2-.01-.05-.03-.09-.05-.13-.1-.19-.3-.23-.46-.08-.02.01-.03.03-.05.04-.04.02-.08.05-.12.05-.07,0-.11.02-.16.07-.14.15-.28.17-.47.08-.02,0-.04,0-.06,0-.1.04-.18.09-.24.19Z"/>
      </g>
      <circle class="cls-3" cx="24" cy="12.02" r="6.48"/>
    </g>
  </g>
  <g id="Layer_4" data-name="Layer 4">
    <path class="cls-1" d="M33.61,22.38c-2.31-2.31-6.05-2.31-8.36,0-2.03,2.03-2.27,5.16-.74,7.46l-10.21,10.21,1.64,1.64,1.21-1.21,2.7,2.7,1.64-1.64-1.75-1.75,1.64-1.64.88.88,1.64-1.64-1.83-1.83,4.08-4.08c2.3,1.54,5.43,1.29,7.46-.74,2.31-2.31,2.31-6.05,0-8.36ZM31.86,28.99c-1.34,1.34-3.52,1.34-4.86,0-1.34-1.34-1.34-3.52,0-4.86,1.34-1.34,3.52-1.34,4.86,0s1.34,3.52,0,4.86Z"/>
  </g>
</svg>