<?xml version="1.0" encoding="UTF-8"?>
<svg xmlns="http://www.w3.org/2000/svg" xmlns:xlink="http://www.w3.org/1999/xlink" viewBox="0 0 48 48">
  <defs>
    <style>
      .cls-1 {
        fill: url(#linear-gradient-2);
      }

      .cls-2 {
        fill: #fff;
      }

      .cls-3 {
        fill: none;
      }

      .cls-4 {
        fill: url(#linear-gradient-4);
      }

      .cls-5 {
        fill: url(#linear-gradient-3);
      }

      .cls-6 {
        fill: url(#linear-gradient);
      }

      .cls-7 {
        clip-path: url(#clippath);
      }
    </style>
    <linearGradient id="linear-gradient" x1="29.52" y1="37.93" x2="34.01" y2="37.93" gradientUnits="userSpaceOnUse">
      <stop offset="0" stop-color="#006"/>
      <stop offset="1" stop-color="#4c00c4"/>
    </linearGradient>
    <linearGradient id="linear-gradient-2" x1="25.05" y1="5.5" x2="25.05" y2="43.53" gradientUnits="userSpaceOnUse">
      <stop offset="0" stop-color="#000"/>
      <stop offset=".14" stop-color="#003"/>
      <stop offset=".14" stop-color="#000034"/>
      <stop offset=".28" stop-color="#1b0067"/>
      <stop offset=".4" stop-color="#30008f"/>
      <stop offset=".52" stop-color="#3f00ac"/>
      <stop offset=".61" stop-color="#4800bd"/>
      <stop offset=".69" stop-color="#4c00c4"/>
    </linearGradient>
    <linearGradient id="linear-gradient-3" x1="16.99" y1="43.53" x2="16.99" y2="36.8" gradientUnits="userSpaceOnUse">
      <stop offset="0" stop-color="#4c00c4"/>
      <stop offset="1" stop-color="blue"/>
    </linearGradient>
    <clipPath id="clippath">
      <path class="cls-3" d="M21.14,14.64h-8.95l4.47-7.75,4.47,7.75ZM22.06,21.53c.52.01.94.16,1.27.43s.55.64.65,1.1.17,1.31.17,2.52.05,2.09.14,2.62.27.97.55,1.32.64.6,1.07.75c.3.11.78.16,1.44.16h.57v-1.59h-.31c-.64,0-1.07-.09-1.29-.27s-.36-.5-.41-.96c-.03-.25-.04-1.03-.04-2.35,0-1.45-.17-2.5-.5-3.14s-.87-1.11-1.62-1.42c.63-.3,1.09-.65,1.38-1.04s.5-.95.62-1.67c.07-.47.11-1.58.11-3.35,0-.88.11-1.44.34-1.7s.7-.38,1.4-.38h.31v-1.59h-.57c-.58,0-1,.03-1.26.1-.38.11-.69.27-.93.47s-.45.48-.61.83-.28.8-.34,1.37c-.03.36-.05,1.1-.06,2.23s-.06,1.92-.17,2.39-.33.83-.65,1.1-.75.41-1.27.42v1.65ZM17.41,16.87h-1.59l-2.89,7.43h1.59l.61-1.69h2.97l.65,1.69h1.63l-2.97-7.43ZM15.6,21.36l1-2.76,1.02,2.76h-2.03ZM30.84,16.4h2.53c.96,0,1.56-.02,1.81-.05.4-.04.73-.16,1.01-.35s.49-.45.64-.76.24-.65.24-.99c0-.43-.12-.8-.36-1.12s-.59-.54-1.04-.67c.32-.15.57-.36.76-.65s.28-.61.28-.96c0-.32-.08-.61-.23-.87s-.34-.47-.57-.62-.49-.26-.77-.31-.73-.07-1.31-.07h-2.97v7.43ZM33.2,10.21c.71,0,1.13,0,1.28.03.25.03.44.12.56.26s.19.33.19.56-.07.43-.22.58-.35.24-.61.27c-.14.02-.5.03-1.09.03h-.98v-1.72h.86ZM33.55,13.16c.68,0,1.13.04,1.33.11s.36.18.47.34.16.34.16.57c0,.26-.07.47-.21.63s-.32.26-.54.3c-.15.03-.49.05-1.03.05h-1.39v-1.99h1.21ZM34.97,31.97c-.29.25-.63.38-1.03.38-.54,0-.98-.2-1.32-.6s-.51-1.07-.51-2.01c0-.88.17-1.52.51-1.92s.79-.59,1.34-.59c.4,0,.74.11,1.02.33s.46.53.55.91l1.48-.35c-.17-.59-.42-1.05-.76-1.37-.57-.54-1.31-.81-2.21-.81-1.04,0-1.88.34-2.52,1.03s-.96,1.64-.96,2.88c0,1.17.32,2.09.95,2.76s1.45,1.01,2.43,1.01c.8,0,1.45-.2,1.97-.59s.89-1,1.11-1.81l-1.45-.46c-.12.54-.33.94-.62,1.2Z"/>
    </clipPath>
    <linearGradient id="linear-gradient-4" x1="25.05" y1="34.58" x2="25.05" y2="6.25" gradientUnits="userSpaceOnUse">
      <stop offset="0" stop-color="#d3b8ff"/>
      <stop offset="1" stop-color="#fff"/>
    </linearGradient>
  </defs>
  <g id="Layer_1" data-name="Layer 1">
    <path d="M27.3,39.04c0-2.46,2-4.46,4.46-4.46s4.46,2,4.46,4.46v2.23h-6.1l.15.28c.8,1.19,2.17,1.98,3.71,1.98,2.47,0,4.48-2.01,4.48-4.48V5.49H11.63v29.08h-2.22V3.27h31.29v35.77c0,3.7-3,6.7-6.7,6.7s-6.7-3-6.7-6.7ZM31.76,36.8c-1.24,0-2.24,1.01-2.24,2.25h4.49c0-1.24-1.01-2.25-2.25-2.25Z"/>
    <path d="M2.7,39.04c0-2.47,2-4.46,4.46-4.46h24.59v2.22H7.16c-1.24,0-2.25,1.01-2.24,2.24,0,2.48,2.01,4.48,4.48,4.48h24.59v2.22s-24.59,0-24.59,0c-3.7,0-6.7-3-6.7-6.7Z"/>
    <path class="cls-6" d="M34.01,39.06c0-1.25-1.01-2.25-2.24-2.25s-2.24,1.01-2.24,2.25h4.49Z"/>
    <path class="cls-2" d="M34,43.53c2.47,0,4.48-2.01,4.48-4.48l-.02-33.55H11.62l.02,29.08h20.13c2.46,0,4.46,2,4.46,4.46v2.23h-6.09l.15.28c.81,1.19,2.17,1.98,3.71,1.98Z"/>
    <path class="cls-2" d="M29.06,43.53l-.61-.74c-.72-1.07-1.14-2.36-1.14-3.74,0-.62.13-1.2.35-1.74l.28-.51H7.16c-1.24,0-2.25,1.01-2.24,2.25,0,2.47,2.01,4.48,4.48,4.48h19.66Z"/>
    <path class="cls-1" d="M34,43.53c2.47,0,4.48-2.01,4.48-4.48l-.02-33.55H11.62l.02,29.08h20.13c2.46,0,4.46,2,4.46,4.46v2.23h-6.09l.15.28c.81,1.19,2.17,1.98,3.71,1.98Z"/>
    <path class="cls-5" d="M29.06,43.53l-.61-.74c-.72-1.07-1.14-2.36-1.14-3.74,0-.62.13-1.2.35-1.74l.28-.51H7.16c-1.24,0-2.25,1.01-2.24,2.25,0,2.47,2.01,4.48,4.48,4.48h19.66Z"/>
  </g>
  <g id="Layer_4" data-name="Layer 4">
    <g class="cls-7">
      <rect class="cls-4" x="11.62" y="6.25" width="26.86" height="28.33"/>
    </g>
  </g>
</svg>