<?xml version="1.0" encoding="UTF-8"?>
<svg xmlns="http://www.w3.org/2000/svg" xmlns:xlink="http://www.w3.org/1999/xlink" viewBox="0 0 48 48">
  <defs>
    <style>
      .cls-1 {
        fill: url(#linear-gradient-2);
      }

      .cls-2 {
        fill: url(#linear-gradient);
        stroke: #000;
        stroke-miterlimit: 10;
        stroke-width: 2px;
      }
    </style>
    <linearGradient id="linear-gradient" x1="24" y1="44.77" x2="24" y2="3.25" gradientUnits="userSpaceOnUse">
      <stop offset="0" stop-color="#000"/>
      <stop offset=".26" stop-color="#003"/>
      <stop offset=".38" stop-color="#100052"/>
      <stop offset=".58" stop-color="#290083"/>
      <stop offset=".76" stop-color="#3c00a6"/>
      <stop offset=".91" stop-color="#4700bc"/>
      <stop offset="1" stop-color="#4c00c4"/>
    </linearGradient>
    <linearGradient id="linear-gradient-2" x1="24.82" y1="43.18" x2="24.82" y2="8.64" gradientUnits="userSpaceOnUse">
      <stop offset="0" stop-color="#d3b8ff"/>
      <stop offset="1" stop-color="#fff"/>
    </linearGradient>
  </defs>
  <g id="Layer_1" data-name="Layer 1">
    <path class="cls-2" d="M8.95,18.29c0-8.31,6.74-15.05,15.05-15.05s15.05,6.74,15.05,15.05v26.48H8.95v-26.48Z"/>
  </g>
  <g id="text">
    <path class="cls-1" d="M33.61,22.38c-2.31-2.31-6.05-2.31-8.36,0-2.03,2.03-2.27,5.16-.74,7.46l-10.21,10.21,1.64,1.64,1.21-1.21,2.7,2.7,1.64-1.64-1.75-1.75,1.64-1.64.88.88,1.64-1.64-1.83-1.83,4.08-4.08c2.3,1.54,5.43,1.29,7.46-.74,2.31-2.31,2.31-6.05,0-8.36ZM31.86,28.99c-1.34,1.34-3.52,1.34-4.86,0-1.34-1.34-1.34-3.52,0-4.86,1.34-1.34,3.52-1.34,4.86,0s1.34,3.52,0,4.86ZM15.38,15.8v-7.16h3.04c.76,0,1.32.06,1.67.19.35.13.62.36.83.69s.31.71.31,1.13c0,.54-.16.98-.47,1.33-.32.35-.79.57-1.42.66.31.18.57.38.77.6.2.22.48.61.82,1.16l.87,1.4h-1.73l-1.04-1.56c-.37-.56-.62-.91-.76-1.05-.14-.15-.28-.24-.43-.3-.15-.05-.4-.08-.73-.08h-.29v2.99h-1.45ZM16.83,11.67h1.07c.69,0,1.13-.03,1.3-.09s.31-.16.41-.3.15-.32.15-.54c0-.24-.06-.44-.19-.58-.13-.15-.31-.24-.54-.28-.12-.02-.47-.02-1.05-.02h-1.13v1.82ZM23.64,15.8v-7.16h1.45v7.16h-1.45ZM27.13,15.8v-7.16h2.32c.88,0,1.45.04,1.72.11.41.11.75.34,1.03.7.28.36.42.82.42,1.39,0,.44-.08.81-.24,1.11s-.36.54-.61.71c-.25.17-.5.28-.75.34-.34.07-.84.1-1.5.1h-.94v2.7h-1.45ZM28.58,9.85v2.03h.79c.57,0,.95-.04,1.14-.11s.34-.19.45-.35c.11-.16.16-.34.16-.56,0-.26-.08-.48-.23-.64s-.35-.28-.58-.32c-.17-.03-.52-.05-1.04-.05h-.7Z"/>
  </g>
</svg>