<?xml version="1.0" encoding="UTF-8"?>
<svg id="Layer_1" data-name="Layer 1" xmlns="http://www.w3.org/2000/svg" xmlns:xlink="http://www.w3.org/1999/xlink" viewBox="0 0 48 48">
  <defs>
    <style>
      .cls-1 {
        fill: #fff;
      }

      .cls-2 {
        fill: none;
      }

      .cls-3 {
        clip-path: url(#clippath-1);
      }

      .cls-4 {
        fill: url(#linear-gradient);
        stroke: #000;
        stroke-miterlimit: 10;
        stroke-width: 2px;
      }

      .cls-5 {
        clip-path: url(#clippath-2);
      }
    </style>
    <clipPath id="clippath-1">
      <circle class="cls-2" cx="23.87" cy="-44.24" r="22.01"/>
    </clipPath>
    <linearGradient id="linear-gradient" x1="2.93" y1="24" x2="45.07" y2="24" gradientUnits="userSpaceOnUse">
      <stop offset="0" stop-color="#000"/>
      <stop offset="0" stop-color="#000001"/>
      <stop offset=".03" stop-color="#000017"/>
      <stop offset=".07" stop-color="#000027"/>
      <stop offset=".11" stop-color="#000030"/>
      <stop offset=".17" stop-color="#003"/>
      <stop offset=".3" stop-color="#080042"/>
      <stop offset=".55" stop-color="#1e006c"/>
      <stop offset=".9" stop-color="#4100af"/>
      <stop offset="1" stop-color="#4c00c4"/>
    </linearGradient>
    <clipPath id="clippath-2">
      <circle class="cls-2" cx="14.56" cy="23.32" r="11.62"/>
    </clipPath>
  </defs>
  <g class="cls-3">
    <path d="M10.3-.36c-.1-.82.47-1.74,1.28-2.09.2-.09.41-.14.62-.19.81-.19,1.63-.37,2.44-.55.22-.05.35-.2.34-.45,0-.24-.02-.5-.1-.72-.33-.92-.68-1.84-1.04-2.76-.36-.93-.75-1.85-.91-2.84-.15-.87-.11-1.73,0-2.59.12-.88.26-1.75.4-2.63.02-.11.03-.19-.12-.23-1.15-.29-2.3-.41-3.47-.13-1.09.26-1.91.88-2.39,1.9-.6,1.31-1.42,2.47-2.32,3.58-1.06,1.29-2.2,2.5-3.43,3.63-.02.02-.05.04-.07.07.68-1.32,1.35-2.63,2.02-3.94-.02-.01-.04-.02-.06-.03C2.01-8.43.1-7.04-2.03-5.91c.86-1.39,1.56-2.85,2.22-4.34-1.59,2.11-3.2,4.2-5.22,6-.15-1.74-.24-3.42.08-5.13-1.03,1.08-2.31,1.69-3.66,2.22-.04-.59.14-1.12.26-1.67-.9.86-1.98,1.33-3.2,1.67.04-.13.06-.22.09-.3.45-1.46,1.16-2.79,2.03-4.04,1.52-2.2,3.4-4.07,5.49-5.74.87-.7,1.8-1.33,2.7-1.99.04-.03.09-.07.17-.13-1.45.08-2.77-.13-3.95-1.06,2.23-.45,4.32-1.19,6.4-1.95-.33.07-.66.15-.99.21-1.67.31-3.34.4-5.02.01-.71-.16-1.39-.41-2.01-.81-.08-.05-.15-.11-.27-.2,2.52-.05,4.93-.49,7.33-.98,0-.02,0-.03,0-.05-1.03-.46-2.05-.92-3.12-1.4.06-.02.09-.03.11-.03,1.89-.05,3.69-.51,5.39-1.33,2.68-1.29,4.67-3.29,6.08-5.89.69-1.27,1.36-2.55,2.19-3.74,1.57-2.23,3.41-4.21,5.48-6,1.19-1.03,2.44-1.99,3.76-2.86.4-.26.8-.51,1.21-.76.03-.02.07-.03.13-.06.23,1.01.18,2.01.18,3.02.06-.27.13-.54.17-.81.34-2.11,0-4.11-.95-6.01-.06-.13-.16-.17-.28-.19-1.96-.36-3.88-.88-5.72-1.64-.86-.36-1.68-.8-2.52-1.2-.1-.05-.23-.08-.35-.07-.67.07-1.33.15-1.99.23-.03,0-.06,0-.14,0,.19-.27.35-.51.53-.74,1.19-1.54,2.76-2.56,4.58-3.21,1.99-.7,4.04-.94,6.13-.82.16,0,.28-.03.41-.12.62-.42,1.32-.63,2.05-.73,1.82-.25,3.6.01,5.36.48,1.55.41,2.95,1.12,4.14,2.22.97.9,1.71,1.95,2.16,3.2.02.07.07.14.13.18,1.19.79,1.87,1.94,2.27,3.28.34,1.18.65,2.37,1,3.54.3.98.67,1.95.96,2.93.4,1.35.62,2.73.81,4.12.27,1.94.43,3.9.5,5.86,0,.09,0,.19-.03.3-.28-.59-.56-1.18-.84-1.77h-.05c.25,4.71-1.03,9.01-3.46,13-.34-.75-.51-1.52-.53-2.35-1.35,2.45-3.29,4.28-5.75,5.57.36-.66.71-1.32,1.08-2-.08,0-.1-.01-.11,0-.82.5-1.72.81-2.63,1.1-.12.04-.24.12-.32.22-1.06,1.4-2.15,2.78-3.41,4.01-.2.2-.33.4-.35.68-.03.4-.07.79-.08,1.19,0,.27.1.51.27.73,1.68,2.11,3.41,4.17,5.33,6.07.63.62,1.31,1.2,2.01,1.74.86.66,1.89.84,2.95.87.75.02,1.5,0,2.26.04.55.02,1.06.19,1.45.62.08.09.22.12.34.18.34.18.65.39.86.72.2.3.24.63.12,1.01-.04-.1-.07-.17-.1-.24-.27-.63-.78-.87-1.44-.69-.33.09-.67.18-1.01.21-.53.04-.95-.22-1.28-.63-.07-.09-.13-.13-.25-.09-.84.23-1.67.24-2.52.03-.08-.02-.19,0-.27.04-1.23.56-2.48.62-3.74.11-.67-.27-1.31-.26-1.95.07-.17.09-.34.17-.51.27-.6.32-1.16.26-1.7-.13-.13-.09-.24-.25-.45-.21-.26.05-.47.16-.64.37-.02.02-.04.05-.07.08,0-.43.27-.9.67-1.17.1-.07.2-.16.29-.24.21-.21.47-.3.75-.3.37,0,.75.02,1.11.09.65.12,1.29.17,1.92-.08.29-.11.56-.27.74-.53.17-.23.17-.38-.02-.59-.85-.96-1.71-1.9-2.56-2.86-1.5-1.69-3-3.38-4.49-5.07-.97-1.11-1.23-2.39-.85-3.8.11-.43.27-.86.4-1.29.02-.07.04-.13.07-.23-.3.03-.58.06-.86.1-.6.08-1.2.17-1.79.27-.12.02-.26.09-.35.17-.82.77-1.42,1.69-1.88,2.71-.5,1.12-1.03,2.22-1.52,3.33-.32.74-.55,1.51-.46,2.32.05.46.16.92.3,1.37.25.82.53,1.64.81,2.45.08.24.19.48.3.71.29.61.77.89,1.45.9.81.01,1.62.05,2.42.12.5.04.98.19,1.41.48.28.19.49.43.61.75.03.08.11.16.18.2.53.32.84.75.77,1.4,0,.06-.02.13-.03.19-.02,0-.04,0-.04,0-.22-.59-.69-.79-1.28-.8-.42,0-.84-.04-1.22-.25-.13-.07-.27-.14-.36-.25-.12-.14-.25-.14-.41-.12-.65.07-1.28.03-1.89-.26-.15-.07-.32-.13-.49-.16-.2-.04-.3.06-.28.25.02.13.06.26.1.39.13.38.19.77.09,1.16-.05.21-.2.39-.3.59-.03.07-.08.13-.1.2-.08.3-.2.57-.49.81-.04-.32-.09-.59-.11-.87-.01-.1-.03-.17-.13-.23-.22-.13-.27-.36-.3-.59-.04-.25-.06-.51-.11-.76-.04-.17-.11-.35-.19-.5-.36-.71-1.12-.85-1.72-.32-.06.05-.11.12-.17.15-.15.07-.31.19-.45.18-.27-.01-.42.09-.59.28-.53.58-1.06.65-1.77.29-.06-.03-.16-.03-.23,0-.36.15-.68.35-.89.71Z"/>
  </g>
  <rect class="cls-4" x="2.93" y="10.42" width="42.13" height="27.17" rx="3.53" ry="3.53"/>
  <g class="cls-5">
    <path class="cls-1" d="M7.39,46.49c-.05-.43.25-.92.68-1.1.11-.05.22-.08.33-.1.43-.1.86-.19,1.29-.29.12-.03.18-.11.18-.24,0-.13,0-.26-.05-.38-.18-.49-.36-.97-.55-1.46-.19-.49-.39-.98-.48-1.5-.08-.46-.06-.91,0-1.37.06-.46.14-.93.21-1.39,0-.06.01-.1-.06-.12-.61-.15-1.22-.22-1.83-.07-.57.14-1.01.46-1.26,1-.32.69-.75,1.31-1.23,1.89-.56.68-1.16,1.32-1.81,1.92-.01.01-.02.02-.04.03.36-.7.71-1.39,1.07-2.08,0,0-.02-.01-.03-.02-.79,1.01-1.8,1.75-2.92,2.34.46-.73.83-1.51,1.17-2.29-.84,1.11-1.69,2.22-2.76,3.17-.08-.92-.13-1.8.04-2.71-.55.57-1.22.89-1.93,1.17-.02-.31.07-.59.14-.88-.47.46-1.05.7-1.69.88.02-.07.03-.11.05-.16.24-.77.61-1.47,1.07-2.13.81-1.16,1.8-2.15,2.9-3.03.46-.37.95-.7,1.43-1.05.02-.02.05-.03.09-.07-.77.04-1.46-.07-2.09-.56,1.18-.24,2.28-.63,3.38-1.03-.17.04-.35.08-.52.11-.88.16-1.77.21-2.65,0-.38-.09-.74-.22-1.06-.43-.04-.03-.08-.06-.14-.1,1.33-.03,2.6-.26,3.87-.52,0,0,0-.02,0-.03-.54-.24-1.08-.49-1.65-.74.03,0,.05-.01.06-.01,1-.03,1.95-.27,2.85-.7,1.41-.68,2.47-1.74,3.21-3.11.36-.67.72-1.35,1.16-1.98.83-1.18,1.8-2.22,2.89-3.17.63-.54,1.29-1.05,1.98-1.51.21-.14.42-.27.64-.4.02-.01.04-.02.07-.03.12.53.1,1.06.09,1.59.03-.14.07-.29.09-.43.18-1.11,0-2.17-.5-3.18-.03-.07-.08-.09-.15-.1-1.03-.19-2.05-.46-3.02-.87-.45-.19-.89-.42-1.33-.63-.05-.03-.12-.04-.18-.04-.35.04-.7.08-1.05.12-.02,0-.03,0-.07,0,.1-.14.19-.27.28-.39.63-.81,1.46-1.35,2.42-1.69,1.05-.37,2.13-.5,3.24-.43.08,0,.15-.01.22-.06.33-.22.7-.33,1.08-.39.96-.13,1.9,0,2.83.25.82.22,1.56.59,2.19,1.17.51.47.9,1.03,1.14,1.69.01.04.04.07.07.1.63.42.99,1.02,1.2,1.73.18.62.34,1.25.53,1.87.16.52.35,1.03.51,1.55.21.71.33,1.44.43,2.18.14,1.03.22,2.06.26,3.09,0,.05,0,.1-.02.16-.15-.31-.3-.62-.44-.94h-.02c.13,2.49-.54,4.76-1.83,6.87-.18-.4-.27-.81-.28-1.24-.71,1.29-1.74,2.26-3.04,2.94.19-.35.38-.69.57-1.06-.04,0-.05,0-.06,0-.43.27-.91.43-1.39.58-.06.02-.13.07-.17.12-.56.74-1.13,1.47-1.8,2.12-.11.1-.17.21-.18.36-.02.21-.04.42-.04.63,0,.14.05.27.14.38.89,1.11,1.8,2.2,2.82,3.2.33.33.69.63,1.06.92.45.35,1,.44,1.56.46.4,0,.79,0,1.19.02.29.01.56.1.77.33.04.05.12.07.18.1.18.09.34.21.45.38.1.16.12.33.06.53-.02-.05-.04-.09-.05-.13-.14-.33-.41-.46-.76-.37-.18.05-.35.1-.53.11-.28.02-.5-.12-.68-.33-.04-.05-.07-.07-.13-.05-.44.12-.88.13-1.33.01-.04-.01-.1,0-.14.02-.65.3-1.31.33-1.98.06-.35-.14-.69-.14-1.03.04-.09.05-.18.09-.27.14-.31.17-.61.14-.9-.07-.07-.05-.13-.13-.24-.11-.14.03-.25.08-.34.19,0,.01-.02.03-.03.04,0-.22.14-.48.35-.62.06-.04.11-.08.15-.13.11-.11.25-.16.4-.16.2,0,.39.01.59.05.34.06.68.09,1.01-.04.15-.06.29-.14.39-.28.09-.12.09-.2-.01-.31-.45-.5-.9-1-1.35-1.51-.79-.89-1.58-1.78-2.37-2.68-.51-.59-.65-1.26-.45-2.01.06-.23.14-.45.21-.68.01-.04.02-.07.04-.12-.16.02-.31.03-.46.05-.32.04-.63.09-.95.14-.06.01-.14.05-.18.09-.43.41-.75.89-.99,1.43-.26.59-.54,1.17-.8,1.76-.17.39-.29.8-.24,1.23.03.24.09.49.16.72.13.44.28.87.43,1.3.04.13.1.25.16.37.15.32.41.47.76.48.43,0,.85.03,1.28.06.26.02.52.1.75.25.15.1.26.23.32.4.02.04.06.08.1.11.28.17.44.4.41.74,0,.03-.01.07-.02.1-.01,0-.02,0-.02,0-.12-.31-.37-.42-.68-.42-.22,0-.44-.02-.64-.13-.07-.04-.14-.08-.19-.13-.06-.07-.13-.07-.22-.06-.34.04-.68.02-1-.13-.08-.04-.17-.07-.26-.09-.1-.02-.16.03-.15.13,0,.07.03.14.05.21.07.2.1.41.04.61-.03.11-.11.21-.16.31-.02.03-.04.07-.05.11-.04.16-.11.3-.26.43-.02-.17-.05-.31-.06-.46,0-.05-.02-.09-.07-.12-.12-.07-.14-.19-.16-.31-.02-.13-.03-.27-.06-.4-.02-.09-.06-.18-.1-.27-.19-.38-.59-.45-.91-.17-.03.03-.06.06-.09.08-.08.04-.16.1-.24.09-.14,0-.22.05-.31.15-.28.31-.56.34-.93.16-.03-.02-.09-.02-.12,0-.19.08-.36.18-.47.37Z"/>
  </g>
  <path class="cls-1" d="M26.06,18.39v-2.45h13.18v2.45h-13.18Z"/>
  <path class="cls-1" d="M26.07,23.33v-2.45h16.94v2.45h-16.94Z"/>
  <path class="cls-1" d="M26.07,28.26v-2.45h5.65v2.45h-5.65Z"/>
  <path class="cls-1" d="M26.07,33.2v-2.45h11.29v2.45h-11.29Z"/>
  <path class="cls-1" d="M35.48,28.26v-2.45h5.65v2.45h-5.65Z"/>
</svg>