<?xml version="1.0" encoding="UTF-8"?>
<svg xmlns="http://www.w3.org/2000/svg" xmlns:xlink="http://www.w3.org/1999/xlink" viewBox="0 0 48 48">
  <defs>
    <style>
      .cls-1 {
        fill: url(#linear-gradient-2);
      }

      .cls-2 {
        fill: url(#linear-gradient);
        stroke: #000;
        stroke-miterlimit: 10;
        stroke-width: 2px;
      }
    </style>
    <linearGradient id="linear-gradient" x1="24" y1="44.77" x2="24" y2="3.25" gradientUnits="userSpaceOnUse">
      <stop offset="0" stop-color="#000"/>
      <stop offset=".26" stop-color="#003"/>
      <stop offset=".38" stop-color="#100052"/>
      <stop offset=".58" stop-color="#290083"/>
      <stop offset=".76" stop-color="#3c00a6"/>
      <stop offset=".91" stop-color="#4700bc"/>
      <stop offset="1" stop-color="#4c00c4"/>
    </linearGradient>
    <linearGradient id="linear-gradient-2" x1="23.67" y1="42.73" x2="23.67" y2="8.64" gradientUnits="userSpaceOnUse">
      <stop offset="0" stop-color="#d3b8ff"/>
      <stop offset="1" stop-color="#fff"/>
    </linearGradient>
  </defs>
  <g id="Layer_1" data-name="Layer 1">
    <path class="cls-2" d="M8.95,18.29c0-8.31,6.74-15.05,15.05-15.05s15.05,6.74,15.05,15.05v26.48H8.95v-26.48Z"/>
  </g>
  <g id="text">
    <path class="cls-1" d="M20.73,30.63c.52.01.94.16,1.27.43s.55.64.65,1.1.17,1.31.17,2.52.05,2.09.14,2.62.27.97.55,1.32.64.6,1.07.75c.3.11.78.16,1.44.16h.57v-1.59h-.31c-.64,0-1.07-.09-1.29-.27s-.36-.5-.41-.96c-.03-.25-.04-1.03-.04-2.35,0-1.45-.17-2.5-.5-3.14s-.87-1.11-1.62-1.42c.63-.3,1.09-.65,1.38-1.04s.5-.95.62-1.67c.07-.47.11-1.58.11-3.35,0-.88.11-1.44.34-1.7s.7-.38,1.4-.38h.31v-1.59h-.57c-.58,0-1,.03-1.26.1-.38.11-.69.27-.93.47s-.45.48-.61.83-.28.8-.34,1.37c-.03.36-.05,1.1-.06,2.23s-.06,1.92-.17,2.39-.33.83-.65,1.1-.75.41-1.27.42v1.65ZM16.09,25.97h-1.59l-2.89,7.43h1.59l.61-1.69h2.97l.65,1.69h1.63l-2.97-7.43ZM14.27,30.46l1-2.76,1.02,2.76h-2.03ZM29.52,25.5h2.53c.96,0,1.56-.02,1.81-.05.4-.04.73-.16,1.01-.35s.49-.45.64-.76.24-.65.24-.99c0-.43-.12-.8-.36-1.12s-.59-.54-1.04-.67c.32-.15.57-.36.76-.65s.28-.61.28-.96c0-.32-.08-.61-.23-.87s-.34-.47-.57-.62-.49-.26-.77-.31-.73-.07-1.31-.07h-2.97v7.43ZM31.88,19.31c.71,0,1.13,0,1.28.03.25.03.44.12.56.26s.19.33.19.56-.07.43-.22.58-.35.24-.61.27c-.14.02-.5.03-1.09.03h-.98v-1.72h.86ZM32.23,22.26c.68,0,1.13.04,1.33.11s.36.18.47.34.16.34.16.57c0,.26-.07.47-.21.63s-.32.26-.54.3c-.15.03-.49.05-1.03.05h-1.39v-1.99h1.21ZM33.64,41.07c-.29.25-.63.38-1.03.38-.54,0-.98-.2-1.32-.6s-.51-1.07-.51-2.01c0-.88.17-1.52.51-1.92s.79-.59,1.34-.59c.4,0,.74.11,1.02.33s.46.53.55.91l1.48-.35c-.17-.59-.42-1.05-.76-1.37-.57-.54-1.31-.81-2.21-.81-1.04,0-1.88.34-2.52,1.03s-.96,1.64-.96,2.88c0,1.17.32,2.09.95,2.76s1.45,1.01,2.43,1.01c.8,0,1.45-.2,1.97-.59s.89-1,1.11-1.81l-1.45-.46c-.12.54-.33.94-.62,1.2ZM15.38,15.8v-7.16h3.04c.76,0,1.32.06,1.67.19.35.13.62.36.83.69s.31.71.31,1.13c0,.54-.16.98-.47,1.33-.32.35-.79.57-1.42.66.31.18.57.38.77.6.2.22.48.61.82,1.16l.87,1.4h-1.73l-1.04-1.56c-.37-.56-.62-.91-.76-1.05-.14-.15-.28-.24-.43-.3-.15-.05-.4-.08-.73-.08h-.29v2.99h-1.45ZM16.83,11.67h1.07c.69,0,1.13-.03,1.3-.09s.31-.16.41-.3.15-.32.15-.54c0-.24-.06-.44-.19-.58-.13-.15-.31-.24-.54-.28-.12-.02-.47-.02-1.05-.02h-1.13v1.82ZM23.64,15.8v-7.16h1.45v7.16h-1.45ZM27.13,15.8v-7.16h2.32c.88,0,1.45.04,1.72.11.41.11.75.34,1.03.7.28.36.42.82.42,1.39,0,.44-.08.81-.24,1.11s-.36.54-.61.71c-.25.17-.5.28-.75.34-.34.07-.84.1-1.5.1h-.94v2.7h-1.45ZM28.58,9.85v2.03h.79c.57,0,.95-.04,1.14-.11s.34-.19.45-.35c.11-.16.16-.34.16-.56,0-.26-.08-.48-.23-.64s-.35-.28-.58-.32c-.17-.03-.52-.05-1.04-.05h-.7Z"/>
  </g>
</svg>