<?xml version="1.0" encoding="UTF-8"?>
<svg xmlns="http://www.w3.org/2000/svg" xmlns:xlink="http://www.w3.org/1999/xlink" viewBox="0 0 48 48">
  <defs>
    <style>
      .cls-1 {
        fill: #fff;
      }

      .cls-2 {
        fill: none;
      }

      .cls-3 {
        fill: url(#linear-gradient);
      }
    </style>
    <linearGradient id="linear-gradient" x1="24" y1="48" x2="24" y2="0" gradientUnits="userSpaceOnUse">
      <stop offset="0" stop-color="#000"/>
      <stop offset=".49" stop-color="#003"/>
      <stop offset=".56" stop-color="#020037"/>
      <stop offset=".65" stop-color="#090045"/>
      <stop offset=".74" stop-color="#15005c"/>
      <stop offset=".84" stop-color="#26007c"/>
      <stop offset=".94" stop-color="#3c00a5"/>
      <stop offset="1" stop-color="#4c00c4"/>
    </linearGradient>
  </defs>
  <g id="Layer_1" data-name="Layer 1">
    <path class="cls-3" d="M48,26.41v16.59c0,2.76-2.24,5-5,5H5C2.24,48,0,45.76,0,43v-18.84c.87.48,1.83.85,2.6,1.45,3.19,2.49,5.87,5.41,7.49,9.19.09.2.37.31.56.47.14-.2.39-.39.4-.6.07-.79.14-1.6.07-2.39-.2-2.37-1.01-4.56-2.05-6.68-.6-1.22-.16-2.18,1.05-2.72,2.11-.95,4.25-1.86,6.29-2.94,1.6-.84,3.08-1.89,4.6-2.88,1.17-.76,1.56-1.83,1.16-3.18-.21-.69-.38-1.39-.61-2.07-1.38-4.05-3.67-7.49-6.92-10.27-.29-.25-.88-.43-1.17-.29-.3.14-.56.7-.58,1.08-.11,2.66-.59,5.24-1.4,7.76-1.06,3.33-2.68,6.36-4.9,9.09-1.15,1.42-2.74.91-3.3-.15-.42-.8-.13-1.47.29-2.17.82-1.34,1.68-2.66,2.38-4.06,2-4.04,2.7-8.33,2.18-12.81h34.84c2.76,0,5,2.24,5,5v16.92c-.88.64-1.77,1.26-2.63,1.93-2.62,2.07-5.31,4.05-8.41,5.34-1.05.44-2.25.6-3.39.69-.43.03-.91-.52-1.36-.8.29-.41.52-.9.88-1.21,1.08-.93,2.1-1.86,2.54-3.22.11-.33.5-1.05-.03-1.38-.33-.29-.82.01-1.15.11-.66.21-1.31.61-1.96.85-2.84,1.02-5.54.38-6.98-2.51-.77-1.55-1.53-3.1-2.38-4.61-.84.33-1.49.91-2.2,1.42-1.95,1.41-4.05,2.55-6.29,3.45-1.03.41-1.98.95-2.38,2.1-.45,1.3.17,2.32,1.52,2.46.64.07,1.28.05,1.91.15.55.08,1.09.26,1.81.45-.27.16-.33.23-.4.23-.61.07-1.09.43-1.05,1,.02.41.37.91.72,1.18.83.66,1.75,1.21,2.64,1.8.49.33,1,.72,1.6.28.57-.41.55-.98.33-1.58-.01-.03.04-.09-.02.04.84-.31,1.54-.59,2.25-.83.43-.14.86-.29,1.31-.33.23-.02.48.19.72.29-.17.2-.3.49-.51.58-1.61.68-2.64,1.85-3.17,3.49-.34,1.07-.52,2.19-1.9,2.89-1.47-.61-2.93-1.27-4.36-1.97-1.59-.77-1.82-1.27-1.57-3.05.09-.63.13-1.27.12-1.91,0-.42-.1-.85-.24-1.25-.06-.17-.36-.39-.51-.36-.25.04-.62.7-.21.67.77-.06,1.33.69.9,1.34-1.74,2.63-2.21,4.62-.64,5.62.79.5,1.57,1.01,2.39,1.45,3.94,2.15,7.73,4.51,10.97,7.68.55.54,1.14,1.05,1.77,1.48.26.17.82.24,1.01.08.24-.2.37-.7.33-1.04-.06-.39-.29-.81-.56-1.12-.85-.95-1.76-1.85-2.64-2.77-.14-.15-.28-.31-.42-.47.28-.05.45,0,.58.12,1.28,1.2,2.56,2.39,3.81,3.62.61.6,1.09.76,1.75.28,1.65-1.19,2.77-2.76,3.02-4.8.11-.9.4-1.66,1-2.29,1.12-1.18,2.23-2.36,3.4-3.48,2.24-2.13,4.51-4.22,6.77-6.33.44-.41.86-.86,1.29-1.29Z"/>
    <path class="cls-1" d="M48,26.41c-.43.43-.84.87-1.29,1.29-2.26,2.11-4.53,4.2-6.77,6.33-1.17,1.12-2.29,2.3-3.4,3.48-.6.63-.89,1.39-1,2.29-.25,2.04-1.37,3.61-3.02,4.8-.66.47-1.14.32-1.75-.28-1.25-1.23-2.53-2.42-3.81-3.62-.12-.11-.3-.17-.58-.12.14.16.27.32.42.47.88.92,1.79,1.82,2.64,2.77.27.3.51.72.56,1.12.05.34-.08.84-.33,1.04-.19.16-.75.1-1.01-.08-.64-.43-1.22-.95-1.77-1.48-3.24-3.16-7.03-5.52-10.97-7.68-.82-.45-1.6-.95-2.39-1.45-.75-.48-1.03-1.17-.94-2.06.17-1.69.31-3.39.5-5.08.02-.19.23-.47.39-.5.15-.03.45.19.51.36.14.4.24.83.24,1.25,0,.64-.04,1.28-.12,1.91-.25,1.77-.02,2.27,1.57,3.05,1.01.49,2.02.96,3.05,1.41,1.27.55,2.4.05,2.88-1.26.13-.35.22-.71.34-1.07.52-1.65,1.56-2.82,3.17-3.49.21-.09.34-.38.51-.58-.24-.1-.49-.31-.72-.29-.44.04-.88.19-1.31.33-.71.24-1.41.52-2.25.83.06-.13,0-.07.02-.04.22.6.24,1.17-.33,1.58-.6.43-1.11.04-1.6-.28-.89-.59-1.8-1.14-2.64-1.8-.35-.27-.7-.77-.72-1.18-.03-.57.44-.93,1.05-1,.07,0,.13-.07.4-.23-.72-.18-1.25-.36-1.81-.45-.63-.09-1.28-.08-1.91-.15-1.35-.14-1.98-1.16-1.52-2.46.4-1.15,1.34-1.69,2.38-2.1,2.24-.89,4.34-2.04,6.29-3.45.35-.25.68-.52,1.03-.76.81-.57,1.28-.49,1.74.38.63,1.18,1.21,2.37,1.81,3.57,1.44,2.89,4.15,3.54,6.98,2.51.65-.23,1.27-.56,1.93-.77.32-.1.7-.04,1.05-.05-.01.36.05,1-.06,1.34-.44,1.35-1.25,2.19-2.32,3.12-.37.32-.59.8-.88,1.21.46.28.93.83,1.36.8,1.14-.08,2.34-.25,3.39-.69,3.1-1.29,5.79-3.27,8.41-5.34.85-.67,1.75-1.29,2.63-1.93v4.48ZM32.56,42.81c-.02-1.18-.8-2.19-1.64-2.26-.3-.03-.73.11-.89.32-.15.2-.1.66.03.92.24.46.57.9.95,1.27.27.26.74.59,1,.5.29-.09.46-.61.55-.75ZM20.37,30.18c-.08-.3-.07-.42-.12-.45-.74-.49-1.47-.99-2.23-1.43-.08-.04-.43.18-.47.33-.05.18.04.49.18.6.57.43,1.16.85,1.8,1.17.19.1.55-.14.83-.22Z"/>
    <path class="cls-1" d="M8.16,0c.52,4.48-.18,8.77-2.18,12.81-.69,1.4-1.56,2.72-2.38,4.06-.42.69-.72,1.37-.29,2.17.56,1.06,2.16,1.57,3.3.15,2.21-2.73,3.83-5.75,4.9-9.09.8-2.52,1.29-5.11,1.4-7.76.02-.39.28-.94.58-1.08.29-.14.89.05,1.17.29,3.25,2.78,5.54,6.23,6.92,10.27.23.68.4,1.38.61,2.07.41,1.35.02,2.42-1.16,3.18-1.52.98-3.01,2.03-4.6,2.88-2.05,1.08-4.18,1.99-6.29,2.94-1.22.55-1.65,1.51-1.05,2.72,1.04,2.12,1.85,4.31,2.05,6.68.07.79,0,1.59-.07,2.39-.02.21-.26.4-.4.6-.19-.15-.48-.27-.56-.47-1.62-3.78-4.3-6.7-7.49-9.19C1.83,25.02.87,24.64,0,24.16V5C0,2.24,2.24,0,5,0h3.16Z"/>
    <path d="M32.56,42.81c-.1.14-.26.66-.55.75-.26.08-.73-.25-1-.5-.38-.36-.71-.8-.95-1.27-.13-.26-.18-.72-.03-.92.15-.22.59-.35.89-.32.84.07,1.62,1.08,1.64,2.26Z"/>
    <path d="M20.37,30.18c-.28.08-.64.31-.83.22-.64-.32-1.23-.74-1.8-1.17-.14-.11-.23-.42-.18-.6.04-.15.39-.37.47-.33.76.45,1.5.94,2.23,1.43.05.03.04.15.12.45Z"/>
  </g>
  <g id="text">
    <g>
      <rect class="cls-2" x="31.25" y="2.59" width="22.25" height="26.45"/>
      <path class="cls-1" d="M37.7,17.71c0-.33-.01-.57-.01-.74,0-.97.14-1.8.41-2.5.2-.53.52-1.06.97-1.6.33-.39.92-.96,1.77-1.72s1.41-1.35,1.66-1.8c.25-.45.38-.93.38-1.46,0-.96-.37-1.8-1.12-2.52s-1.66-1.09-2.75-1.09-1.92.33-2.62.98-1.16,1.68-1.38,3.08l-2.53-.3c.23-1.87.9-3.3,2.03-4.29,1.13-.99,2.61-1.49,4.46-1.49,1.96,0,3.52.53,4.69,1.6s1.75,2.36,1.75,3.87c0,.88-.21,1.68-.62,2.42s-1.21,1.64-2.41,2.69c-.8.71-1.33,1.24-1.57,1.57-.25.34-.43.72-.55,1.16s-.19,1.15-.21,2.13h-2.37ZM37.55,22.64v-2.8h2.8v2.8h-2.8Z"/>
    </g>
  </g>
</svg>