<?xml version="1.0" encoding="UTF-8"?>
<svg xmlns="http://www.w3.org/2000/svg" xmlns:xlink="http://www.w3.org/1999/xlink" viewBox="0 0 48 48">
  <defs>
    <style>
      .cls-1 {
        fill: url(#linear-gradient-2);
      }

      .cls-2 {
        fill: #fff;
      }

      .cls-3 {
        fill: none;
      }

      .cls-4 {
        fill: url(#linear-gradient-4);
      }

      .cls-5 {
        fill: url(#linear-gradient-3);
      }

      .cls-6 {
        fill: url(#linear-gradient);
      }

      .cls-7 {
        clip-path: url(#clippath);
      }
    </style>
    <linearGradient id="linear-gradient" x1="29.52" y1="37.93" x2="34.01" y2="37.93" gradientUnits="userSpaceOnUse">
      <stop offset="0" stop-color="#006"/>
      <stop offset="1" stop-color="#4c00c4"/>
    </linearGradient>
    <linearGradient id="linear-gradient-2" x1="25.05" y1="5.5" x2="25.05" y2="43.53" gradientUnits="userSpaceOnUse">
      <stop offset="0" stop-color="#000"/>
      <stop offset=".14" stop-color="#003"/>
      <stop offset=".14" stop-color="#000034"/>
      <stop offset=".28" stop-color="#1b0067"/>
      <stop offset=".4" stop-color="#30008f"/>
      <stop offset=".52" stop-color="#3f00ac"/>
      <stop offset=".61" stop-color="#4800bd"/>
      <stop offset=".69" stop-color="#4c00c4"/>
    </linearGradient>
    <linearGradient id="linear-gradient-3" x1="16.99" y1="43.53" x2="16.99" y2="36.8" gradientUnits="userSpaceOnUse">
      <stop offset="0" stop-color="#4c00c4"/>
      <stop offset="1" stop-color="blue"/>
    </linearGradient>
    <clipPath id="clippath">
      <path class="cls-3" d="M21.14,14.64h-8.95l4.47-7.75,4.47,7.75ZM35.23,19.54c-2.03,2.03-5.16,2.27-7.46.74l-4.08,4.08,1.83,1.83-1.64,1.64-.88-.88-1.64,1.64,1.75,1.75-1.64,1.64-2.7-2.7-1.21,1.21-1.64-1.64,10.21-10.21c-1.54-2.3-1.29-5.43.74-7.46,2.31-2.31,6.05-2.31,8.36,0s2.31,6.05,0,8.36ZM33.47,12.93c-1.34-1.34-3.52-1.34-4.86,0-1.34,1.34-1.34,3.52,0,4.86,1.34,1.34,3.52,1.34,4.86,0,1.34-1.34,1.34-3.52,0-4.86Z"/>
    </clipPath>
    <linearGradient id="linear-gradient-4" x1="25.05" y1="34.58" x2="25.05" y2="6.25" gradientUnits="userSpaceOnUse">
      <stop offset="0" stop-color="#d3b8ff"/>
      <stop offset="1" stop-color="#fff"/>
    </linearGradient>
  </defs>
  <g id="Layer_1" data-name="Layer 1">
    <path d="M27.3,39.04c0-2.46,2-4.46,4.46-4.46s4.46,2,4.46,4.46v2.23h-6.1l.15.28c.8,1.19,2.17,1.98,3.71,1.98,2.47,0,4.48-2.01,4.48-4.48V5.49H11.63v29.08h-2.22V3.27h31.29v35.77c0,3.7-3,6.7-6.7,6.7s-6.7-3-6.7-6.7ZM31.76,36.8c-1.24,0-2.24,1.01-2.24,2.25h4.49c0-1.24-1.01-2.25-2.25-2.25Z"/>
    <path d="M2.7,39.04c0-2.47,2-4.46,4.46-4.46h24.59v2.22H7.16c-1.24,0-2.25,1.01-2.24,2.24,0,2.48,2.01,4.48,4.48,4.48h24.59v2.22s-24.59,0-24.59,0c-3.7,0-6.7-3-6.7-6.7Z"/>
    <path class="cls-6" d="M34.01,39.06c0-1.25-1.01-2.25-2.24-2.25s-2.24,1.01-2.24,2.25h4.49Z"/>
    <path class="cls-2" d="M34,43.53c2.47,0,4.48-2.01,4.48-4.48l-.02-33.55H11.62l.02,29.08h20.13c2.46,0,4.46,2,4.46,4.46v2.23h-6.09l.15.28c.81,1.19,2.17,1.98,3.71,1.98Z"/>
    <path class="cls-2" d="M29.06,43.53l-.61-.74c-.72-1.07-1.14-2.36-1.14-3.74,0-.62.13-1.2.35-1.74l.28-.51H7.16c-1.24,0-2.25,1.01-2.24,2.25,0,2.47,2.01,4.48,4.48,4.48h19.66Z"/>
    <path class="cls-1" d="M34,43.53c2.47,0,4.48-2.01,4.48-4.48l-.02-33.55H11.62l.02,29.08h20.13c2.46,0,4.46,2,4.46,4.46v2.23h-6.09l.15.28c.81,1.19,2.17,1.98,3.71,1.98Z"/>
    <path class="cls-5" d="M29.06,43.53l-.61-.74c-.72-1.07-1.14-2.36-1.14-3.74,0-.62.13-1.2.35-1.74l.28-.51H7.16c-1.24,0-2.25,1.01-2.24,2.25,0,2.47,2.01,4.48,4.48,4.48h19.66Z"/>
  </g>
  <g id="Layer_4" data-name="Layer 4">
    <g class="cls-7">
      <rect class="cls-4" x="11.62" y="6.25" width="26.86" height="28.33"/>
    </g>
  </g>
</svg>