<?xml version="1.0" encoding="UTF-8"?>
<svg xmlns="http://www.w3.org/2000/svg" xmlns:xlink="http://www.w3.org/1999/xlink" viewBox="0 0 48 48">
  <defs>
    <style>
      .cls-1 {
        fill: url(#linear-gradient-2);
      }

      .cls-2 {
        fill: #fff;
      }

      .cls-3 {
        fill: none;
      }

      .cls-4 {
        fill: url(#linear-gradient-4);
      }

      .cls-5 {
        fill: url(#linear-gradient-3);
      }

      .cls-6 {
        clip-path: url(#clippath-1);
      }

      .cls-7 {
        fill: url(#linear-gradient);
      }
    </style>
    <linearGradient id="linear-gradient" x1="29.52" y1="37.93" x2="34.01" y2="37.93" gradientUnits="userSpaceOnUse">
      <stop offset="0" stop-color="#006"/>
      <stop offset="1" stop-color="#4c00c4"/>
    </linearGradient>
    <linearGradient id="linear-gradient-2" x1="25.05" y1="5.5" x2="25.05" y2="43.53" gradientUnits="userSpaceOnUse">
      <stop offset="0" stop-color="#000"/>
      <stop offset=".14" stop-color="#003"/>
      <stop offset=".14" stop-color="#000034"/>
      <stop offset=".28" stop-color="#1b0067"/>
      <stop offset=".4" stop-color="#30008f"/>
      <stop offset=".52" stop-color="#3f00ac"/>
      <stop offset=".61" stop-color="#4800bd"/>
      <stop offset=".69" stop-color="#4c00c4"/>
    </linearGradient>
    <linearGradient id="linear-gradient-3" x1="16.99" y1="43.53" x2="16.99" y2="36.8" gradientUnits="userSpaceOnUse">
      <stop offset="0" stop-color="#4c00c4"/>
      <stop offset="1" stop-color="blue"/>
    </linearGradient>
    <clipPath id="clippath-1">
      <circle class="cls-3" cx="23.87" cy="-44.24" r="22.01"/>
    </clipPath>
    <linearGradient id="linear-gradient-4" x1="25.31" y1="32.32" x2="25.31" y2="8.93" gradientUnits="userSpaceOnUse">
      <stop offset="0" stop-color="#d3b8ff"/>
      <stop offset="1" stop-color="#fff"/>
    </linearGradient>
  </defs>
  <g id="Layer_1" data-name="Layer 1">
    <path d="M27.3,39.04c0-2.46,2-4.46,4.46-4.46s4.46,2,4.46,4.46v2.23h-6.1l.15.28c.8,1.19,2.17,1.98,3.71,1.98,2.47,0,4.48-2.01,4.48-4.48V5.49H11.63v29.08h-2.22V3.27h31.29v35.77c0,3.7-3,6.7-6.7,6.7s-6.7-3-6.7-6.7ZM31.76,36.8c-1.24,0-2.24,1.01-2.24,2.25h4.49c0-1.24-1.01-2.25-2.25-2.25Z"/>
    <path d="M2.7,39.04c0-2.47,2-4.46,4.46-4.46h24.59v2.22H7.16c-1.24,0-2.25,1.01-2.24,2.24,0,2.48,2.01,4.48,4.48,4.48h24.59v2.22s-24.59,0-24.59,0c-3.7,0-6.7-3-6.7-6.7Z"/>
    <path class="cls-7" d="M34.01,39.06c0-1.25-1.01-2.25-2.24-2.25s-2.24,1.01-2.24,2.25h4.49Z"/>
    <path class="cls-2" d="M34,43.53c2.47,0,4.48-2.01,4.48-4.48l-.02-33.55H11.62l.02,29.08h20.13c2.46,0,4.46,2,4.46,4.46v2.23h-6.09l.15.28c.81,1.19,2.17,1.98,3.71,1.98Z"/>
    <path class="cls-2" d="M29.06,43.53l-.61-.74c-.72-1.07-1.14-2.36-1.14-3.74,0-.62.13-1.2.35-1.74l.28-.51H7.16c-1.24,0-2.25,1.01-2.24,2.25,0,2.47,2.01,4.48,4.48,4.48h19.66Z"/>
    <path class="cls-1" d="M34,43.53c2.47,0,4.48-2.01,4.48-4.48l-.02-33.55H11.62l.02,29.08h20.13c2.46,0,4.46,2,4.46,4.46v2.23h-6.09l.15.28c.81,1.19,2.17,1.98,3.71,1.98Z"/>
    <path class="cls-5" d="M29.06,43.53l-.61-.74c-.72-1.07-1.14-2.36-1.14-3.74,0-.62.13-1.2.35-1.74l.28-.51H7.16c-1.24,0-2.25,1.01-2.24,2.25,0,2.47,2.01,4.48,4.48,4.48h19.66Z"/>
    <g class="cls-6">
      <path d="M10.3-.36c-.1-.82.47-1.74,1.28-2.09.2-.09.41-.14.62-.19.81-.19,1.63-.37,2.44-.55.22-.05.35-.2.34-.45,0-.24-.02-.5-.1-.72-.33-.92-.68-1.84-1.04-2.76-.36-.93-.75-1.85-.91-2.84-.15-.87-.11-1.73,0-2.59.12-.88.26-1.75.4-2.63.02-.11.03-.19-.12-.23-1.15-.29-2.3-.41-3.47-.13-1.09.26-1.91.88-2.39,1.9-.6,1.31-1.42,2.47-2.32,3.58-1.06,1.29-2.2,2.5-3.43,3.63-.02.02-.05.04-.07.07.68-1.32,1.35-2.63,2.02-3.94-.02-.01-.04-.02-.06-.03C2.01-8.43.1-7.04-2.03-5.91c.86-1.39,1.56-2.85,2.22-4.34-1.59,2.11-3.2,4.2-5.22,6-.15-1.74-.24-3.42.08-5.13-1.03,1.08-2.31,1.69-3.66,2.22-.04-.59.14-1.12.26-1.67-.9.86-1.98,1.33-3.2,1.67.04-.13.06-.22.09-.3.45-1.46,1.16-2.79,2.03-4.04,1.52-2.2,3.4-4.07,5.49-5.74.87-.7,1.8-1.33,2.7-1.99.04-.03.09-.07.17-.13-1.45.08-2.77-.13-3.95-1.06,2.23-.45,4.32-1.19,6.4-1.95-.33.07-.66.15-.99.21-1.67.31-3.34.4-5.02.01-.71-.16-1.39-.41-2.01-.81-.08-.05-.15-.11-.27-.2,2.52-.05,4.93-.49,7.33-.98,0-.02,0-.03,0-.05-1.03-.46-2.05-.92-3.12-1.4.06-.02.09-.03.11-.03,1.89-.05,3.69-.51,5.39-1.33,2.68-1.29,4.67-3.29,6.08-5.89.69-1.27,1.36-2.55,2.19-3.74,1.57-2.23,3.41-4.21,5.48-6,1.19-1.03,2.44-1.99,3.76-2.86.4-.26.8-.51,1.21-.76.03-.02.07-.03.13-.06.23,1.01.18,2.01.18,3.02.06-.27.13-.54.17-.81.34-2.11,0-4.11-.95-6.01-.06-.13-.16-.17-.28-.19-1.96-.36-3.88-.88-5.72-1.64-.86-.36-1.68-.8-2.52-1.2-.1-.05-.23-.08-.35-.07-.67.07-1.33.15-1.99.23-.03,0-.06,0-.14,0,.19-.27.35-.51.53-.74,1.19-1.54,2.76-2.56,4.58-3.21,1.99-.7,4.04-.94,6.13-.82.16,0,.28-.03.41-.12.62-.42,1.32-.63,2.05-.73,1.82-.25,3.6.01,5.36.48,1.55.41,2.95,1.12,4.14,2.22.97.9,1.71,1.95,2.16,3.2.02.07.07.14.13.18,1.19.79,1.87,1.94,2.27,3.28.34,1.18.65,2.37,1,3.54.3.98.67,1.95.96,2.93.4,1.35.62,2.73.81,4.12.27,1.94.43,3.9.5,5.86,0,.09,0,.19-.03.3-.28-.59-.56-1.18-.84-1.77h-.05c.25,4.71-1.03,9.01-3.46,13-.34-.75-.51-1.52-.53-2.35-1.35,2.45-3.29,4.28-5.75,5.57.36-.66.71-1.32,1.08-2-.08,0-.1-.01-.11,0-.82.5-1.72.81-2.63,1.1-.12.04-.24.12-.32.22-1.06,1.4-2.15,2.78-3.41,4.01-.2.2-.33.4-.35.68-.03.4-.07.79-.08,1.19,0,.27.1.51.27.73,1.68,2.11,3.41,4.17,5.33,6.07.63.62,1.31,1.2,2.01,1.74.86.66,1.89.84,2.95.87.75.02,1.5,0,2.26.04.55.02,1.06.19,1.45.62.08.09.22.12.34.18.34.18.65.39.86.72.2.3.24.63.12,1.01-.04-.1-.07-.17-.1-.24-.27-.63-.78-.87-1.44-.69-.33.09-.67.18-1.01.21-.53.04-.95-.22-1.28-.63-.07-.09-.13-.13-.25-.09-.84.23-1.67.24-2.52.03-.08-.02-.19,0-.27.04-1.23.56-2.48.62-3.74.11-.67-.27-1.31-.26-1.95.07-.17.09-.34.17-.51.27-.6.32-1.16.26-1.7-.13-.13-.09-.24-.25-.45-.21-.26.05-.47.16-.64.37-.02.02-.04.05-.07.08,0-.43.27-.9.67-1.17.1-.07.2-.16.29-.24.21-.21.47-.3.75-.3.37,0,.75.02,1.11.09.65.12,1.29.17,1.92-.08.29-.11.56-.27.74-.53.17-.23.17-.38-.02-.59-.85-.96-1.71-1.9-2.56-2.86-1.5-1.69-3-3.38-4.49-5.07-.97-1.11-1.23-2.39-.85-3.8.11-.43.27-.86.4-1.29.02-.07.04-.13.07-.23-.3.03-.58.06-.86.1-.6.08-1.2.17-1.79.27-.12.02-.26.09-.35.17-.82.77-1.42,1.69-1.88,2.71-.5,1.12-1.03,2.22-1.52,3.33-.32.74-.55,1.51-.46,2.32.05.46.16.92.3,1.37.25.82.53,1.64.81,2.45.08.24.19.48.3.71.29.61.77.89,1.45.9.81.01,1.62.05,2.42.12.5.04.98.19,1.41.48.28.19.49.43.61.75.03.08.11.16.18.2.53.32.84.75.77,1.4,0,.06-.02.13-.03.19-.02,0-.04,0-.04,0-.22-.59-.69-.79-1.28-.8-.42,0-.84-.04-1.22-.25-.13-.07-.27-.14-.36-.25-.12-.14-.25-.14-.41-.12-.65.07-1.28.03-1.89-.26-.15-.07-.32-.13-.49-.16-.2-.04-.3.06-.28.25.02.13.06.26.1.39.13.38.19.77.09,1.16-.05.21-.2.39-.3.59-.03.07-.08.13-.1.2-.08.3-.2.57-.49.81-.04-.32-.09-.59-.11-.87-.01-.1-.03-.17-.13-.23-.22-.13-.27-.36-.3-.59-.04-.25-.06-.51-.11-.76-.04-.17-.11-.35-.19-.5-.36-.71-1.12-.85-1.72-.32-.06.05-.11.12-.17.15-.15.07-.31.19-.45.18-.27-.01-.42.09-.59.28-.53.58-1.06.65-1.77.29-.06-.03-.16-.03-.23,0-.36.15-.68.35-.89.71Z"/>
    </g>
  </g>
  <g id="Layer_4" data-name="Layer 4">
    <path class="cls-4" d="M15.21,8.93h20.2v5.96h-1.83c-.27-.98-.54-1.1-.81-1.68-.27-.57-.55-1.01-.85-1.3-.3-.3-.62-.51-.96-.63-.34-.13-.86-.19-1.54-.19h-2.37v16.89c0,.67.04,1.21.12,1.61.08.4.2.72.37.95.17.23.4.42.68.55.29.13.74.26,1.34.39v.84h-8.53v-.84c.37-.08.7-.17.99-.26.29-.09.52-.2.7-.33.18-.13.33-.3.45-.51.12-.21.21-.49.28-.84.07-.35.1-.87.1-1.56V11.1h-2.35c-.58,0-1.07.05-1.45.15-.38.1-.73.32-1.05.64-.32.33-.62.79-.89,1.39-.27.6-.52.7-.76,1.62h-1.85v-5.96Z"/>
  </g>
</svg>