<svg width="0" height="0" version="1.1" xmlns="http://www.w3.org/2000/svg" xmlns:xlink="http://www.w3.org/1999/xlink" viewBox="0pt 0pt 0pt 0pt" fill-dark="#FFF" stroke-dark="none">
  <svg id="Layer_1" xmlns="http://www.w3.org/2000/svg" xmlns:xlink="http://www.w3.org/1999/xlink" viewBox="0 0 48 48">
    <defs xmlns="http://www.w3.org/2000/svg">
      <style>
      .cls-1 {
        fill: #fff;
      }

      .cls-2 {
        fill: none;
      }

      .cls-3 {
        clip-path: url(#clippath-1);
      }

      .cls-4 {
        fill: url(#linear-gradient);
      }

      .cls-5 {
        clip-path: url(#clippath);
      }
    </style>
      <linearGradient id="linear-gradient" x1="23.87" y1="45.77" x2="23.87" y2="1.76" gradientUnits="userSpaceOnUse">
        <stop offset=".34" stop-color="#003" />
        <stop offset=".44" stop-color="#020037" />
        <stop offset=".55" stop-color="#090045" />
        <stop offset=".67" stop-color="#15005c" />
        <stop offset=".79" stop-color="#26007c" />
        <stop offset=".92" stop-color="#3c00a5" />
        <stop offset="1" stop-color="#4c00c4" />
      </linearGradient>
      <clipPath id="clippath">
        <path class="cls-2" d="M16.98,71.31c-.25,0-.49-.04-.73-.14-.68-.26-1.16-.88-1.25-1.59,0,0-.04-.32-.05-.35-.2-.28-.34-.6-.43-.97-.05.02-.1.03-.15.04-.78.7-1.59.86-2.16.86-.18,0-.36-.02-.55-.05-.37.34-.85.53-1.36.53-.13,0-.27-.01-.4-.04-.84-.17-1.48-.87-1.58-1.72-.2-1.71.84-3.46,2.48-4.16.36-.15.7-.24.97-.3.28-.07.57-.13.85-.19-.2-.54-.41-1.07-.62-1.61l-.09-.22c-.35-.89-.75-1.9-.94-3.02-.16-.97-.17-2.02,0-3.19.04-.3.08-.59.13-.89-.31,0-.59.04-.87.1-.67.16-.9.49-1.04.8-.61,1.32-1.44,2.6-2.59,4.01-1.08,1.32-2.29,2.6-3.62,3.83-.01.01-.07.06-.08.08-.38.33-.86.51-1.34.51-.43,0-.86-.14-1.22-.42-.04-.03-.07-.06-.1-.09-.42.26-.86.5-1.32.75-.3.16-.62.23-.93.23-.14,0-.28-.01-.42-.04-.4.41-.81.81-1.25,1.19-.37.33-.85.51-1.33.51-.25,0-.5-.05-.74-.14-.7-.28-1.19-.94-1.25-1.69-.04-.5-.08-1.01-.11-1.53-.25.11-.51.21-.76.31-.24.09-.48.14-.73.14-.38,0-.75-.11-1.07-.31-.06-.04-.12-.08-.18-.13-.42.16-.81.28-1.15.37-.18.05-.36.07-.54.07-.53,0-1.04-.21-1.42-.59-.51-.52-.7-1.27-.5-1.96l.1-.34c.48-1.55,1.23-3.05,2.29-4.58,1.42-2.06,3.2-3.96,5.42-5.79-.21-.13-.41-.28-.61-.44-.6-.48-.87-1.25-.71-2-.25-.12-.5-.26-.73-.41-.1-.06-.19-.13-.31-.22l-.08-.06c-.69-.51-.98-1.4-.72-2.22.26-.82,1.01-1.38,1.87-1.39.77-.02,1.52-.07,2.28-.15-.02-.15-.02-.3-.01-.45.08-.85.68-1.56,1.51-1.76.06-.02.28-.08.56-.09,1.54-.04,3.08-.42,4.56-1.13,2.24-1.08,3.93-2.73,5.18-5.04l.21-.39c.63-1.17,1.29-2.39,2.1-3.55,1.61-2.29,3.51-4.37,5.81-6.36,1.28-1.11,2.61-2.12,3.96-3.02.23-.15.45-.29.68-.44-.08-.3-.18-.61-.3-.91-1.95-.41-3.69-.93-5.3-1.6-.6-.25-1.18-.54-1.76-.83-.17-.09-.35-.17-.52-.26-.36.04-1.57.19-1.57.19-.05,0-.17.01-.21.02-.03,0-.07,0-.1,0-.73,0-1.44-.4-1.79-1.04-.37-.67-.35-1.49.09-2.12l.16-.24c.14-.2.27-.39.42-.58,1.36-1.76,3.21-3.06,5.5-3.87,1.81-.64,3.74-.96,5.76-.96.24,0,.48,0,.72.01.72-.41,1.54-.67,2.51-.81.56-.08,1.14-.12,1.72-.12,1.37,0,2.78.21,4.43.65,1.94.52,3.62,1.42,4.98,2.68,1.11,1.03,1.95,2.21,2.5,3.51,1.24.98,2.12,2.34,2.62,4.05.15.52.3,1.04.44,1.57.18.65.36,1.31.56,1.96.14.45.29.9.45,1.35.18.53.36,1.05.52,1.59.45,1.5.68,3.01.87,4.42.27,1.92.44,3.9.52,6.06,0,.23,0,.58-.13.99-.15.47-.47.86-.88,1.1-.37,3.62-1.59,7.16-3.66,10.55-.36.6-1.01.96-1.71.96-.04,0-.08,0-.12,0-.32-.02-.63-.12-.9-.28-1.21,1.3-2.66,2.4-4.32,3.27-.29.15-.61.23-.93.23-.43,0-.85-.14-1.21-.4-.76.97-1.61,1.99-2.56,2.94-.01.12-.02.24-.03.36,1.33,1.66,3.06,3.76,4.99,5.66.53.52,1.13,1.04,1.82,1.57.39.3.93.44,1.78.46.29,0,.58,0,.87.01.47,0,.95,0,1.42.03,1.22.05,2.04.53,2.57,1,.02,0,.04.02.06.03.45.24,1.12.64,1.61,1.41.52.81.65,1.74.35,2.69-.25.81-.98,1.36-1.83,1.4-.03,0-.05,0-.08,0-.66,0-1.27-.32-1.64-.85-.24.05-.5.1-.78.12-.04,0-.19,0-.23,0-.69,0-1.34-.21-1.91-.6-.28.03-.56.05-.84.05-.38,0-.76-.03-1.13-.1-.78.29-1.56.44-2.35.44-.84,0-1.68-.17-2.49-.5-.1-.04-.15-.04-.16-.04-.03,0-.08.02-.11.04l-.49.25c-.55.3-1.12.45-1.71.45-.27,0-.54-.03-.8-.1-.28.82-1.06,1.4-1.92,1.4-.09,0-.18,0-.27-.02-.54-.08-1.03-.37-1.35-.8-.55-.03-1.2-.13-1.83-.47-.05-.03-.12-.06-.19-.11-.06,0-.2,0-.21,0-.11.36-.28.63-.38.8,0,.01-.03.05-.05.09-.15.46-.44,1.07-1.08,1.6-.36.3-.82.46-1.27.46ZM18.55,62.62c.84.02,1.61.06,2.35.13.86.08,1.65.35,2.34.8.1.06.19.13.28.2.09-.08.19-.15.29-.22.58-.58,1.35-.89,2.16-.89.09,0,.18,0,.27,0-.19-.21-.38-.42-.57-.64-1.5-1.69-3-3.38-4.49-5.08-.89-1.01-1.39-2.17-1.5-3.42-.16.26-.3.54-.44.84-.24.53-.48,1.06-.72,1.58-.27.58-.54,1.16-.79,1.74-.25.56-.34.96-.3,1.29.03.29.1.62.22,1.01.22.74.48,1.47.73,2.2l.06.18c.03.09.07.18.11.26Z" />
      </clipPath>
      <clipPath id="clippath-1">
        <circle class="cls-2" cx="23.87" cy="23.76" r="22.01" />
      </clipPath>
    </defs>
    <circle class="cls-4" cx="23.87" cy="23.76" r="22.01" xmlns="http://www.w3.org/2000/svg" />
    <g class="cls-5" xmlns="http://www.w3.org/2000/svg">
      <circle class="cls-1" cx="23.87" cy="23.76" r="22.01" />
    </g>
    <g class="cls-3" xmlns="http://www.w3.org/2000/svg">
      <path d="M10.3,67.64c-.1-.82.47-1.74,1.28-2.09.2-.09.41-.14.62-.19.81-.19,1.63-.37,2.44-.55.22-.05.35-.2.34-.45,0-.24-.02-.5-.1-.72-.33-.92-.68-1.84-1.04-2.76-.36-.93-.75-1.85-.91-2.84-.15-.87-.11-1.73,0-2.59.12-.88.26-1.75.4-2.63.02-.11.03-.19-.12-.23-1.15-.29-2.3-.41-3.47-.13-1.09.26-1.91.88-2.39,1.9-.6,1.31-1.42,2.47-2.32,3.58-1.06,1.29-2.2,2.5-3.43,3.63-.02.02-.05.04-.07.07.68-1.32,1.35-2.63,2.02-3.94-.02-.01-.04-.02-.06-.03-1.49,1.92-3.4,3.31-5.53,4.44.86-1.39,1.56-2.85,2.22-4.34-1.59,2.11-3.2,4.2-5.22,6-.15-1.74-.24-3.42.08-5.13-1.03,1.08-2.31,1.69-3.66,2.22-.04-.59.14-1.12.26-1.67-.9.86-1.98,1.33-3.2,1.67.04-.13.06-.22.09-.3.45-1.46,1.16-2.79,2.03-4.04,1.52-2.2,3.4-4.07,5.49-5.74.87-.7,1.8-1.33,2.7-1.99.04-.03.09-.07.17-.13-1.45.08-2.77-.13-3.95-1.06,2.23-.45,4.32-1.19,6.4-1.95-.33.07-.66.15-.99.21-1.67.31-3.34.4-5.02.01-.71-.16-1.39-.41-2.01-.81-.08-.05-.15-.11-.27-.2,2.52-.05,4.93-.49,7.33-.98,0-.02,0-.03,0-.05-1.03-.46-2.05-.92-3.12-1.4.06-.02.09-.03.11-.03,1.89-.05,3.69-.51,5.39-1.33,2.68-1.29,4.67-3.29,6.08-5.89.69-1.27,1.36-2.55,2.19-3.74,1.57-2.23,3.41-4.21,5.48-6,1.19-1.03,2.44-1.99,3.76-2.86.4-.26.8-.51,1.21-.76.03-.02.07-.03.13-.06.23,1.01.18,2.01.18,3.02.06-.27.13-.54.17-.81.34-2.11,0-4.11-.95-6.01-.06-.13-.16-.17-.28-.19-1.96-.36-3.88-.88-5.72-1.64-.86-.36-1.68-.8-2.52-1.2-.1-.05-.23-.08-.35-.07-.67.07-1.33.15-1.99.23-.03,0-.06,0-.14,0,.19-.27.35-.51.53-.74,1.19-1.54,2.76-2.56,4.58-3.21,1.99-.7,4.04-.94,6.13-.82.16,0,.28-.03.41-.12.62-.42,1.32-.63,2.05-.73,1.82-.25,3.6.01,5.36.48,1.55.41,2.95,1.12,4.14,2.22.97.9,1.71,1.95,2.16,3.2.02.07.07.14.13.18,1.19.79,1.87,1.94,2.27,3.28.34,1.18.65,2.37,1,3.54.3.98.67,1.95.96,2.93.4,1.35.62,2.73.81,4.12.27,1.94.43,3.9.5,5.86,0,.09,0,.19-.03.3-.28-.59-.56-1.18-.84-1.77h-.05c.25,4.71-1.03,9.01-3.46,13-.34-.75-.51-1.52-.53-2.35-1.35,2.45-3.29,4.28-5.75,5.57.36-.66.71-1.32,1.08-2-.08,0-.1-.01-.11,0-.82.5-1.72.81-2.63,1.1-.12.04-.24.12-.32.22-1.06,1.4-2.15,2.78-3.41,4.01-.2.2-.33.4-.35.68-.03.4-.07.79-.08,1.19,0,.27.1.51.27.73,1.68,2.11,3.41,4.17,5.33,6.07.63.62,1.31,1.2,2.01,1.74.86.66,1.89.84,2.95.87.75.02,1.5,0,2.26.04.55.02,1.06.19,1.45.62.08.09.22.12.34.18.34.18.65.39.86.72.2.3.24.63.12,1.01-.04-.1-.07-.17-.1-.24-.27-.63-.78-.87-1.44-.69-.33.09-.67.18-1.01.21-.53.04-.95-.22-1.28-.63-.07-.09-.13-.13-.25-.09-.84.23-1.67.24-2.52.03-.08-.02-.19,0-.27.04-1.23.56-2.48.62-3.74.11-.67-.27-1.31-.26-1.95.07-.17.09-.34.17-.51.27-.6.32-1.16.26-1.7-.13-.13-.09-.24-.25-.45-.21-.26.05-.47.16-.64.37-.02.02-.04.05-.07.08,0-.43.27-.9.67-1.17.1-.07.2-.16.29-.24.21-.21.47-.3.75-.3.37,0,.75.02,1.11.09.65.12,1.29.17,1.92-.08.29-.11.56-.27.74-.53.17-.23.17-.38-.02-.59-.85-.96-1.71-1.9-2.56-2.86-1.5-1.69-3-3.38-4.49-5.07-.97-1.11-1.23-2.39-.85-3.8.11-.43.27-.86.4-1.29.02-.07.04-.13.07-.23-.3.03-.58.06-.86.1-.6.08-1.2.17-1.79.27-.12.02-.26.09-.35.17-.82.77-1.42,1.69-1.88,2.71-.5,1.12-1.03,2.22-1.52,3.33-.32.74-.55,1.51-.46,2.32.05.46.16.92.3,1.37.25.82.53,1.64.81,2.45.08.24.19.48.3.71.29.61.77.89,1.45.9.81.01,1.62.05,2.42.12.5.04.98.19,1.41.48.28.19.49.43.61.75.03.08.11.16.18.2.53.32.84.75.77,1.4,0,.06-.02.13-.03.19-.02,0-.04,0-.04,0-.22-.59-.69-.79-1.28-.8-.42,0-.84-.04-1.22-.25-.13-.07-.27-.14-.36-.25-.12-.14-.25-.14-.41-.12-.65.07-1.28.03-1.89-.26-.15-.07-.32-.13-.49-.16-.2-.04-.3.06-.28.25.02.13.06.26.1.39.13.38.19.77.09,1.16-.05.21-.2.39-.3.59-.03.07-.08.13-.1.2-.08.3-.2.57-.49.81-.04-.32-.09-.59-.11-.87-.01-.1-.03-.17-.13-.23-.22-.13-.27-.36-.3-.59-.04-.25-.06-.51-.11-.76-.04-.17-.11-.35-.19-.5-.36-.71-1.12-.85-1.72-.32-.06.05-.11.12-.17.15-.15.07-.31.19-.45.18-.27-.01-.42.09-.59.28-.53.58-1.06.65-1.77.29-.06-.03-.16-.03-.23,0-.36.15-.68.35-.89.71Z" />
    </g>
  </svg>
</svg>