<svg width="48" height="48" version="1.1" xmlns="http://www.w3.org/2000/svg" xmlns:xlink="http://www.w3.org/1999/xlink" viewBox="0pt 0pt 48pt 48pt" fill-dark="#FFF" stroke-dark="none">
  <svg height="48" viewBox="0 0 48 48" width="48" xmlns="http://www.w3.org/2000/svg" xmlns:xlink="http://www.w3.org/1999/xlink">
    <clipPath id="a" xmlns="http://www.w3.org/2000/svg">
      <path d="m0 0h36v36h-36z" />
    </clipPath>
    <clipPath id="b" xmlns="http://www.w3.org/2000/svg">
      <path d="m9.938 2.388h23.764v31.225h-23.764z" />
    </clipPath>
    <linearGradient id="c" gradientTransform="matrix(4.8 -17.879 17.879 4.8 21.697 32.47)" gradientUnits="userSpaceOnUse" spreadMethod="pad" x1="0" x2="1" y1="0" y2="0" xmlns="http://www.w3.org/2000/svg">
      <stop offset="0" stop-color="#fff" />
      <stop offset="1" stop-color="#fff" stop-opacity="0" />
    </linearGradient>
    <mask id="d" height="1" maskUnits="userSpaceOnUse" width="1" x="0" y="0" xmlns="http://www.w3.org/2000/svg">
      <g clip-path="url(#b)">
        <path d="m9.938 2.388h23.764v31.225h-23.764z" fill="url(#c)" fill-rule="evenodd" />
      </g>
    </mask>
    <g clip-path="url(#a)" transform="matrix(1.3333333 0 0 -1.3333333 0 48)" xmlns="http://www.w3.org/2000/svg">
      <path d="m9.938 33.613h23.764v-7.96h-2.152c-.321 1.312-.641 1.475-.955 2.237-.315.762-.649 1.342-1.001 1.739-.349.396-.726.679-1.13.846-.401.167-1.007.252-1.813.252h-2.789v-22.551c0-.9.048-1.618.144-2.151.095-.534.241-.956.439-1.27.199-.312.465-.556.801-.731.337-.177.865-.348 1.582-.516v-1.12h-10.038v1.12c.441.107.828.222 1.164.344.337.122.612.271.825.445.212.177.386.402.525.675.14.275.251.649.33 1.121.081.473.121 1.167.121 2.083v22.551h-2.767c-.688 0-1.255-.069-1.702-.206-.447-.136-.86-.423-1.24-.857-.381-.436-.73-1.053-1.044-1.855-.315-.799-.611-.936-.89-2.156h-2.174z" style="fill:#6582fc;stroke:#000;stroke-width:1.66;stroke-linecap:round;stroke-linejoin:round;stroke-miterlimit:10" />
      <path d="m2.066 15.824h10.798v-3.485h-.978c-.146.574-.291.077-.434.41-.144.334-.295.588-.455.761-.159.174-.33.298-.513.37-.182.073-.458.111-.824.111h-1.267v-9.304c0-.393.022-.708.066-.941.043-.234.109-.419.198-.556.091-.136.212-.244.365-.32.152-.078.392-.152.718-.226v-.491h-4.56v.491c.2.047.376.098.529.151s.278.119.375.195c.096.078.175.176.238.296.064.12.114.284.15.49.037.207.055.511.055.911v9.304h-1.257c-.313 0-.571-.03-.773-.09-.203-.059-.391-.185-.564-.375-.173-.191-.331-.461-.474-.813-.143-.349-.278.159-.405-.374h-.988z" style="fill:#c5c5c5;stroke:#333;stroke-width:1.237;stroke-linecap:round;stroke-linejoin:round;stroke-miterlimit:10" />
      <path d="m2.997 18v12.692h1.5v-12.692z" />
      <path d="m3.747 33.193 1.579-2.733h-3.157z" fill-rule="evenodd" />
      <path d="m1.447 30.043 2.299 3.982 2.301-3.982zm3.157.833-.857 1.484-.857-1.484z" />
      <path d="m50.138 18.819-2.422 6.328h-.039c.045-.501.068-1.097.068-1.787v-4.541h-.767v7.138h1.25l2.261-5.888h.039l2.28 5.888h1.241v-7.138h-.831v4.599c0 .528.023 1.101.069 1.719h-.039l-2.442-6.318z" />
      <path d="m59.175 18.819-.161.762h-.039c-.267-.336-.533-.563-.798-.681-.266-.119-.597-.179-.994-.179-.53 0-.946.137-1.247.41-.301.274-.452.663-.452 1.167 0 1.081.864 1.648 2.593 1.7l.908.029v.332c0 .42-.09.73-.271.93s-.47.3-.867.3c-.446 0-.95-.136-1.513-.41l-.249.62c.263.144.552.256.866.337.314.082.629.122.945.122.638 0 1.111-.141 1.418-.425.308-.283.462-.737.462-1.362v-3.652zm-1.831.571c.505 0 .901.139 1.189.415.288.277.432.664.432 1.162v.484l-.81-.034c-.645-.023-1.109-.123-1.394-.301-.285-.177-.427-.453-.427-.827 0-.293.088-.516.266-.669.177-.153.425-.23.744-.23z" />
      <g mask="url(#d)">
        <path d="m9.938 33.613h23.764v-7.96h-2.152c-.321 1.312-.641 1.475-.955 2.237-.315.762-.649 1.342-1.001 1.739-.349.396-.726.679-1.13.846-.401.167-1.007.252-1.813.252h-2.789v-22.551c0-.9.048-1.618.144-2.151.095-.534.241-.956.439-1.27.199-.312.465-.556.801-.731.337-.177.865-.348 1.582-.516v-1.12h-10.038v1.12c.441.107.828.222 1.164.344.337.122.612.271.825.445.212.177.386.402.525.675.14.275.251.649.33 1.121.081.473.121 1.167.121 2.083v22.551h-2.767c-.688 0-1.255-.069-1.702-.206-.447-.136-.86-.423-1.24-.857-.381-.436-.73-1.053-1.044-1.855-.315-.799-.611-.936-.89-2.156h-2.174z" fill="#becafc" />
      </g>
      <path d="m9.938 33.613h23.764v-7.96h-2.152c-.321 1.312-.641 1.475-.955 2.237-.315.762-.649 1.342-1.001 1.739-.349.396-.726.679-1.13.846-.401.167-1.007.252-1.813.252h-2.789v-22.551c0-.9.048-1.618.144-2.151.095-.534.241-.956.439-1.27.199-.312.465-.556.801-.731.337-.177.865-.348 1.582-.516v-1.12h-10.038v1.12c.441.107.828.222 1.164.344.337.122.612.271.825.445.212.177.386.402.525.675.14.275.251.649.33 1.121.081.473.121 1.167.121 2.083v22.551h-2.767c-.688 0-1.255-.069-1.702-.206-.447-.136-.86-.423-1.24-.857-.381-.436-.73-1.053-1.044-1.855-.315-.799-.611-.936-.89-2.156h-2.174z" style="fill:none;stroke:#000;stroke-width:1.66;stroke-linecap:round;stroke-linejoin:round;stroke-miterlimit:10" />
    </g>
  </svg>
</svg>